<?xml version="1.0" encoding="UTF-8"?>
<svg width="24px" height="24px" viewBox="0 0 24 24" version="1.1" xmlns="http://www.w3.org/2000/svg">
    <path d="M16.6,5.82 C15.9,5.2 15.5,4.3 15.5,3.3 L12.5,3.3 L12.5,16.3 C12.5,17.9 11.1,19.2 9.5,19.2 C7.9,19.2 6.5,17.8 6.5,16.2 C6.5,14.6 7.9,13.2 9.5,13.2 C9.8,13.2 10.1,13.3 10.4,13.4 L10.4,10.3 C10.1,10.2 9.8,10.2 9.5,10.2 C6.2,10.2 3.5,12.9 3.5,16.2 C3.5,19.5 6.2,22.2 9.5,22.2 C12.8,22.2 15.5,19.5 15.5,16.2 L15.5,9.8 C16.8,10.8 18.4,11.3 20,11.3 L20,8.3 C18.7,8.3 17.5,7.3 16.6,5.82 Z" fill="currentColor"/>
</svg> 